<?xml version="1.0" encoding="UTF-8" standalone="no" ?>
<!DOCTYPE svg PUBLIC "-//W3C//DTD SVG 1.1//EN" "http://www.w3.org/Graphics/SVG/1.1/DTD/svg11.dtd">
<svg xmlns="http://www.w3.org/2000/svg" xmlns:xlink="http://www.w3.org/1999/xlink" version="1.1" width="573.5437" height="180.1679" viewBox="0 0 573.5437 180.1679" xml:space="preserve">
<desc>Created with Fabric.js 4.6.0</desc>
<defs>
</defs>
<g transform="matrix(0.1 0 0 -0.1 301.45 149.86)" id="yZBVch9ZmlMJwe_X3ZF3F"  >
<path style="stroke: rgb(108,59,244); stroke-width: 3; stroke-dasharray: none; stroke-linecap: butt; stroke-dashoffset: 0; stroke-linejoin: miter; stroke-miterlimit: 4; fill: none; fill-rule: nonzero; opacity: 1;" vector-effect="non-scaling-stroke"  transform=" translate(0, 0)" d="M 0 -34.04255 C 18.79149 -34.04255 34.04255 -18.791489999999996 34.04255 0 C 34.04255 18.79149 18.791489999999996 34.04255 0 34.04255 C -18.79149 34.04255 -34.04255 18.791489999999996 -34.04255 0 C -34.04255 -18.79149 -18.791489999999996 -34.04255 0 -34.04255 z" stroke-linecap="round" />
</g>
<g transform="matrix(0.1 0 0 -0.1 823.88 195.39)" id="DED58h3VG3xL1UgHibIEk"  >
<path style="stroke: rgb(108,59,244); stroke-width: 3; stroke-dasharray: none; stroke-linecap: butt; stroke-dashoffset: 0; stroke-linejoin: miter; stroke-miterlimit: 4; fill: none; fill-rule: nonzero; opacity: 1;" vector-effect="non-scaling-stroke"  transform=" translate(0, 0)" d="M 0 -34.04255 C 18.79149 -34.04255 34.04255 -18.791489999999996 34.04255 0 C 34.04255 18.79149 18.791489999999996 34.04255 0 34.04255 C -18.79149 34.04255 -34.04255 18.791489999999996 -34.04255 0 C -34.04255 -18.79149 -18.791489999999996 -34.04255 0 -34.04255 z" stroke-linecap="round" />
</g>
<g transform="matrix(0.1 0 0 -0.1 821.39 149.86)" id="9ysXCXL1wsNcFFSo6FPAV"  >
<path style="stroke: rgb(108,59,244); stroke-width: 3; stroke-dasharray: none; stroke-linecap: butt; stroke-dashoffset: 0; stroke-linejoin: miter; stroke-miterlimit: 4; fill: none; fill-rule: nonzero; opacity: 1;" vector-effect="non-scaling-stroke"  transform=" translate(0, 0)" d="M 0 -34.04255 C 18.79149 -34.04255 34.04255 -18.791489999999996 34.04255 0 C 34.04255 18.79149 18.791489999999996 34.04255 0 34.04255 C -18.79149 34.04255 -34.04255 18.791489999999996 -34.04255 0 C -34.04255 -18.79149 -18.791489999999996 -34.04255 0 -34.04255 z" stroke-linecap="round" />
</g>
<g transform="matrix(0.11 0 0 -0.11 483.66 127.05)" id="AFENS3Aq_ect0zKL4haq9"  >
<path style="stroke: rgb(108,59,244); stroke-width: 3; stroke-dasharray: none; stroke-linecap: butt; stroke-dashoffset: 0; stroke-linejoin: miter; stroke-miterlimit: 4; fill: none; fill-rule: nonzero; opacity: 1;" vector-effect="non-scaling-stroke"  transform=" translate(0, 0)" d="M 0 -34.04255 C 18.79149 -34.04255 34.04255 -18.791489999999996 34.04255 0 C 34.04255 18.79149 18.791489999999996 34.04255 0 34.04255 C -18.79149 34.04255 -34.04255 18.791489999999996 -34.04255 0 C -34.04255 -18.79149 -18.791489999999996 -34.04255 0 -34.04255 z" stroke-linecap="round" />
</g>
<g transform="matrix(1.49 0 0 0.46 286.77 89.93)" id="ulDgfJfnTALKiuUB_iOIs"  >
<path style="stroke: rgb(108,59,244); stroke-width: 0; stroke-dasharray: none; stroke-linecap: butt; stroke-dashoffset: 0; stroke-linejoin: miter; stroke-miterlimit: 4; fill: rgb(55,27,132); fill-rule: nonzero; opacity: 1;" vector-effect="non-scaling-stroke"  transform=" translate(0, 0)" d="M -194.38298 -194.38298 L 194.38298 -194.38298 L 194.38298 194.38298 L -194.38298 194.38298 z" stroke-linecap="round" />
</g>
<g transform="matrix(1.44 0 0 1.44 31.11 118.35)" id="L3HiercmvwUCX8kZNn8fN"  >
<path style="stroke: rgb(108,59,244); stroke-width: 0; stroke-dasharray: none; stroke-linecap: butt; stroke-dashoffset: 0; stroke-linejoin: miter; stroke-miterlimit: 4; fill: rgb(202,193,228); fill-rule: nonzero; opacity: 1;" vector-effect="non-scaling-stroke"  transform=" translate(0, 0)" d="M 0 -2.38298 C 1.31541 -2.38298 2.38298 -1.3154 2.38298 0 C 2.38298 1.31541 1.3154 2.38298 0 2.38298 C -1.31541 2.38298 -2.38298 1.3154 -2.38298 0 C -2.38298 -1.31541 -1.3154 -2.38298 0 -2.38298 z" stroke-linecap="round" />
</g>
<g transform="matrix(-1.44 0 0 -1.44 444.9 135.71)" id="M9Kq2Sk0artE-6n0-j_Hf"  >
<g style="" vector-effect="non-scaling-stroke"   >
		<g transform="matrix(-1 0 0 -1 1.58 -1.01)" id="Tt_8Z3suWQ8T25aCY4k4k"  >
<path style="stroke: rgb(108,59,244); stroke-width: 1; stroke-dasharray: none; stroke-linecap: butt; stroke-dashoffset: 0; stroke-linejoin: miter; stroke-miterlimit: 4; fill: rgb(255,255,255); fill-opacity: 0; fill-rule: nonzero; opacity: 1;" vector-effect="non-scaling-stroke"  transform=" translate(0, 0)" d="M -42.55319 3.3925 L 20.76596 3.3925 L 23.489359999999998 -3.3925 L 42.55319 -3.3925" stroke-linecap="round" />
</g>
		<g transform="matrix(1 0 0 1 -42.25 2.51)" id="OZevmkJJfpEETSJpSwK3K"  >
<path style="stroke: rgb(108,59,244); stroke-width: 0; stroke-dasharray: none; stroke-linecap: butt; stroke-dashoffset: 0; stroke-linejoin: miter; stroke-miterlimit: 4; fill: rgb(202,193,228); fill-rule: nonzero; opacity: 1;" vector-effect="non-scaling-stroke"  transform=" translate(-2.38, -2.38)" d="M 2.38298 0 C 3.69839 0 4.76596 1.06758 4.76596 2.38298 C 4.76596 3.69839 3.69838 4.76596 2.38298 4.76596 C 1.06757 4.76596 0 3.69838 0 2.38298 C 0 1.06757 1.06758 0 2.38298 0 z" stroke-linecap="round" />
</g>
</g>
</g>
<g transform="matrix(1.44 0 0 1.44 164.61 39.35)" id="r_LyF3BoDZI3XpiYy0qSQ"  >
<g style="" vector-effect="non-scaling-stroke"   >
		<g transform="matrix(-1 0 0 -1 1.58 -1.01)" id="AXY7X2ko0g0bpYMcgao9_"  >
<path style="stroke: rgb(108,59,244); stroke-width: 1; stroke-dasharray: none; stroke-linecap: butt; stroke-dashoffset: 0; stroke-linejoin: miter; stroke-miterlimit: 4; fill: rgb(255,255,255); fill-opacity: 0; fill-rule: nonzero; opacity: 1;" vector-effect="non-scaling-stroke"  transform=" translate(0, 0)" d="M -42.55319 3.3925 L 20.76596 3.3925 L 23.489359999999998 -3.3925 L 42.55319 -3.3925" stroke-linecap="round" />
</g>
		<g transform="matrix(1 0 0 1 -42.25 2.51)" id="N1GX7R_dZS7lRv2N_qhyX"  >
<path style="stroke: rgb(108,59,244); stroke-width: 0; stroke-dasharray: none; stroke-linecap: butt; stroke-dashoffset: 0; stroke-linejoin: miter; stroke-miterlimit: 4; fill: rgb(202,193,228); fill-rule: nonzero; opacity: 1;" vector-effect="non-scaling-stroke"  transform=" translate(-2.38, -2.38)" d="M 2.38298 0 C 3.69839 0 4.76596 1.06758 4.76596 2.38298 C 4.76596 3.69839 3.69838 4.76596 2.38298 4.76596 C 1.06757 4.76596 0 3.69838 0 2.38298 C 0 1.06757 1.06758 0 2.38298 0 z" stroke-linecap="round" />
</g>
</g>
</g>
<g transform="matrix(-1.44 0 0 1.44 428.56 40.89)" id="cBNRUpGcQrfB2mzWTMl7i"  >
<g style="" vector-effect="non-scaling-stroke"   >
		<g transform="matrix(-1 0 0 -1 1.58 -1.01)" id="fhmbSNyPqsod8JNa_nreR"  >
<path style="stroke: rgb(108,59,244); stroke-width: 1; stroke-dasharray: none; stroke-linecap: butt; stroke-dashoffset: 0; stroke-linejoin: miter; stroke-miterlimit: 4; fill: rgb(255,255,255); fill-opacity: 0; fill-rule: nonzero; opacity: 1;" vector-effect="non-scaling-stroke"  transform=" translate(0, 0)" d="M -42.55319 3.3925 L 20.76596 3.3925 L 23.489359999999998 -3.3925 L 42.55319 -3.3925" stroke-linecap="round" />
</g>
		<g transform="matrix(1 0 0 1 -42.25 2.51)" id="b5TVf29j6V7fTgc_QjSxR"  >
<path style="stroke: rgb(108,59,244); stroke-width: 0; stroke-dasharray: none; stroke-linecap: butt; stroke-dashoffset: 0; stroke-linejoin: miter; stroke-miterlimit: 4; fill: rgb(202,193,228); fill-rule: nonzero; opacity: 1;" vector-effect="non-scaling-stroke"  transform=" translate(-2.38, -2.38)" d="M 2.38298 0 C 3.69839 0 4.76596 1.06758 4.76596 2.38298 C 4.76596 3.69839 3.69838 4.76596 2.38298 4.76596 C 1.06757 4.76596 0 3.69838 0 2.38298 C 0 1.06757 1.06758 0 2.38298 0 z" stroke-linecap="round" />
</g>
</g>
</g>
<g transform="matrix(1.44 0 0 -1.44 149.41 135.71)" id="_jnDiii8ghIKM8AAYeA9a"  >
<g style="" vector-effect="non-scaling-stroke"   >
		<g transform="matrix(-1 0 0 -1 1.58 -1.01)" id="qKzyHpsiwxe4IRoxoL4v9"  >
<path style="stroke: rgb(108,59,244); stroke-width: 1; stroke-dasharray: none; stroke-linecap: butt; stroke-dashoffset: 0; stroke-linejoin: miter; stroke-miterlimit: 4; fill: rgb(255,255,255); fill-opacity: 0; fill-rule: nonzero; opacity: 1;" vector-effect="non-scaling-stroke"  transform=" translate(0, 0)" d="M -42.55319 3.3925 L 20.76596 3.3925 L 23.489359999999998 -3.3925 L 42.55319 -3.3925" stroke-linecap="round" />
</g>
		<g transform="matrix(1 0 0 1 -42.25 2.51)" id="Kb7Rwf1fpmbo2MfvG3tRA"  >
<path style="stroke: rgb(108,59,244); stroke-width: 0; stroke-dasharray: none; stroke-linecap: butt; stroke-dashoffset: 0; stroke-linejoin: miter; stroke-miterlimit: 4; fill: rgb(202,193,228); fill-rule: nonzero; opacity: 1;" vector-effect="non-scaling-stroke"  transform=" translate(-2.38, -2.38)" d="M 2.38298 0 C 3.69839 0 4.76596 1.06758 4.76596 2.38298 C 4.76596 3.69839 3.69838 4.76596 2.38298 4.76596 C 1.06757 4.76596 0 3.69838 0 2.38298 C 0 1.06757 1.06758 0 2.38298 0 z" stroke-linecap="round" />
</g>
</g>
</g>
<g transform="matrix(1.18 0 0 -1.44 292.86 134.58)" id="v52pwyLJqp71Vp0Td17Fq"  >
<path style="stroke: rgb(108,59,244); stroke-width: 1; stroke-dasharray: none; stroke-linecap: butt; stroke-dashoffset: 0; stroke-linejoin: miter; stroke-miterlimit: 4; fill: rgb(255,255,255); fill-opacity: 0; fill-rule: nonzero; opacity: 1;" vector-effect="non-scaling-stroke"  transform=" translate(0, 0)" d="M -217.78191 11.91489 L -132.67553 11.91489 L -112.25000000000001 -11.9149 L 116.51595999999999 -11.9149 L 139.6649 11.91489 L 217.78191999999999 11.91489" stroke-linecap="round" />
</g>
<g transform="matrix(1.18 0 0 1.44 292.86 40.89)" id="GiQ-d27CVSanSZKz0bSgl"  >
<path style="stroke: rgb(108,59,244); stroke-width: 1; stroke-dasharray: none; stroke-linecap: butt; stroke-dashoffset: 0; stroke-linejoin: miter; stroke-miterlimit: 4; fill: rgb(255,255,255); fill-opacity: 0; fill-rule: nonzero; opacity: 1;" vector-effect="non-scaling-stroke"  transform=" translate(0, 0)" d="M -217.78191 11.91489 L -132.67553 11.91489 L -112.25000000000001 -11.9149 L 116.51595999999999 -11.9149 L 139.6649 11.91489 L 217.78191999999999 11.91489" stroke-linecap="round" />
</g>
<g transform="matrix(1 0 0 1 289.62 88.41)" style="" id="BoKDfxhMwvQjvi1qx4yUw">
		<text xml:space="preserve" font-family="Orbitron" font-size="57" font-style="normal" font-weight="normal" line-height="1" style="stroke: none; stroke-width: 1; stroke-dasharray: none; stroke-linecap: butt; stroke-dashoffset: 0; stroke-linejoin: miter; stroke-miterlimit: 4; fill: rgb(202,193,228); fill-rule: nonzero; opacity: 1; white-space: pre;"><tspan x="-129.05" y="15.61">GeoLink</tspan></text>
</g></svg>